<svg xmlns="http://www.w3.org/2000/svg" width="512" height="512" viewBox="0 0 512 512" fill="none">
  <path d="M64 128C64 110.3 78.3 96 96 96H416C433.7 96 448 110.3 448 128C448 145.7 433.7 160 416 160H96C78.3 160 64 145.7 64 128ZM64 256C64 238.3 78.3 224 96 224H416C433.7 224 448 238.3 448 256C448 273.7 433.7 288 416 288H96C78.3 288 64 273.7 64 256ZM64 384C64 366.3 78.3 352 96 352H416C433.7 352 448 366.3 448 384C448 401.7 433.7 416 416 416H96C78.3 416 64 401.7 64 384Z" fill="#000000"/>
  <path d="M176 144L192 160L224 128M176 272L192 288L224 256M176 400L192 416L224 384" stroke="#000000" stroke-width="24" stroke-linecap="round" stroke-linejoin="round"/>
</svg> 